<?xml version="1.0" encoding="utf-8"?>
<!-- Generator: Adobe Illustrator 24.0.3, SVG Export Plug-In . SVG Version: 6.00 Build 0)  -->
<svg version="1.1" id="Layer_1" xmlns="http://www.w3.org/2000/svg" xmlns:xlink="http://www.w3.org/1999/xlink" x="0px" y="0px"
	 viewBox="0 0 390 220" style="enable-background:new 0 0 390 220;" xml:space="preserve">
<style type="text/css">
	.st0{fill:#3E3E3E;}
	.st1{fill:none;stroke:#658EA5;stroke-width:13;stroke-miterlimit:10;}
	.st2{fill:#C2DCEA;}
	.st3{fill:#B3C4CE;}
	.st4{font-family:'Helvetica-Light';}
	.st5{font-size:185.8683px;}
</style>
<g id="Layer_2_1_">
	<rect class="st0" width="390" height="219.85"/>
</g>
<g>
	<line class="st1" x1="94.02" y1="40.7" x2="94.02" y2="174.38"/>
	<polygon class="st2" points="127.76,158.61 127.39,158.61 83.66,40.74 64.39,40.74 64.39,174.38 76.99,174.38 76.99,55.22 
		77.36,55.22 121.28,174.38 133.14,174.38 155.09,114.56 155.09,83.68 	"/>
	<rect x="177.24" y="115.35" class="st2" width="12.6" height="59.03"/>
	<polygon class="st3" points="167.71,104.59 167.71,80.16 155.09,114.56 155.09,174.38 167.71,174.38 167.71,115.35 177.24,115.35 
		177.24,104.59 	"/>
	<path class="st3" d="M245.58,63.84c-1.3-4.52-3.59-8.51-6.87-11.97c-3.28-3.46-7.74-6.19-13.37-8.17
		c-5.63-1.98-12.78-2.97-21.44-2.97h-48.82v42.95l15.66-42.94h19.09V51.5h10.54c12,0,20.76,2.17,26.26,6.5
		c5.51,4.33,8.26,10.7,8.26,19.12c0,5.69-0.9,10.3-2.69,13.83c-1.8,3.53-4.33,6.31-7.61,8.35c-3.28,2.04-7.27,3.43-11.97,4.18
		c-4.7,0.74-10.02,1.11-15.96,1.11h-6.83v10.77h6.46c6.19,0,12.34-0.56,18.47-1.67c6.13-1.11,11.6-3.06,16.43-5.85
		c4.83-2.78,8.75-6.59,11.79-11.42c3.03-4.83,4.55-10.95,4.55-18.38C247.53,73.1,246.88,68.36,245.58,63.84z"/>
	<rect x="177.24" y="104.59" class="st3" width="12.6" height="10.77"/>
	<polygon class="st3" points="167.71,51.5 189.84,51.5 189.84,40.74 170.75,40.74 155.09,83.68 155.09,114.56 167.71,80.16 	"/>
	<line class="st1" x1="21.79" y1="47.05" x2="100.38" y2="47.05"/>
	<line class="st1" x1="21.79" y1="168.02" x2="100.38" y2="168.02"/>
	<text transform="matrix(1 0 0 1 140.5608 174.542)" class="st3 st4 st5">P</text>
</g>
</svg>
